Coordinates
version=1
nRows=16
nColumns=40
inDegrees=yes

Units are S.I. units (second, meters, Newtons, ...)
If the header above contains a line with 'inDegrees', this indicates whether rotational values are in degrees (yes) or radians (no).

endheader
time	pelvis_tilt	pelvis_list	pelvis_rotation	pelvis_tx	pelvis_ty	pelvis_tz	hip_flexion_r	hip_adduction_r	hip_rotation_r	knee_angle_r	knee_angle_r_beta	ankle_angle_r	subtalar_angle_r	mtp_angle_r	hip_flexion_l	hip_adduction_l	hip_rotation_l	knee_angle_l	knee_angle_l_beta	ankle_angle_l	subtalar_angle_l	mtp_angle_l	lumbar_extension	lumbar_bending	lumbar_rotation	arm_flex_r	arm_add_r	arm_rot_r	elbow_flex_r	pro_sup_r	wrist_flex_r	wrist_dev_r	arm_flex_l	arm_add_l	arm_rot_l	elbow_flex_l	pro_sup_l	wrist_flex_l	wrist_dev_l
      5.00000000	     89.41723497	     35.14953011	     87.74395372	      0.38771525	      0.95336937	      0.54025547	    119.63519578	    -35.47018517	     12.24802884	     68.50068732	      1.19556253	      2.73162653	      0.00000000	      0.00000000	    119.52732636	    -47.72745300	     10.07890683	     66.83409786	      1.16647506	      2.18536429	      0.00000000	      0.00000000	     -1.11203125	     -8.87075417	      6.86337754	     49.72560854	    -18.63549064	     86.64680930	     20.62746813	     82.64911627	      0.00000000	      0.00000000	     52.95559652	    -16.86310284	     77.87435602	     16.54239327	     83.50742652	      0.00000000	      0.00000000
      5.00500000	     89.41365194	     35.04933864	     87.71624292	      0.38763699	      0.95344527	      0.54072808	    119.64029028	    -35.48713211	     12.10339050	     68.41260861	      1.19402527	      2.70762800	      0.00000000	      0.00000000	    119.52907353	    -47.75164604	     10.00631640	     66.76099067	      1.16519910	      2.12038919	      0.00000000	      0.00000000	     -1.03801194	     -8.86328100	      6.89509288	     49.71683727	    -18.63551593	     86.64882190	     20.61886455	     82.64927322	      0.00000000	      0.00000000	     52.94052637	    -16.86039278	     77.87127223	     16.54950581	     83.51060873	      0.00000000	      0.00000000
      5.01000000	     89.41877169	     34.89999808	     87.68643007	      0.38778888	      0.95351605	      0.54136930	    119.64026095	    -35.48245430	     11.94746434	     68.24440334	      1.19108953	      2.66225290	      0.00000000	      0.00000000	    119.53421604	    -47.71506984	      9.97726278	     66.59905107	      1.16237272	      2.05922468	      0.00000000	      0.00000000	     -0.94695538	     -8.85620000	      6.92267729	     49.73975455	    -18.63294424	     86.64427204	     20.60080575	     82.64667132	      0.00000000	      0.00000000	     52.96890670	    -16.85785407	     77.86186878	     16.56275570	     83.51412990	      0.00000000	      0.00000000
      5.01500000	     89.42722545	     34.69006816	     87.63933701	      0.38818193	      0.95359214	      0.54213952	    119.63453624	    -35.43068886	     11.78399182	     67.97565413	      1.18639898	      2.57216796	      0.00000000	      0.00000000	    119.54188267	    -47.62429220	     10.00523552	     66.34074221	      1.15786438	      1.98942500	      0.00000000	      0.00000000	     -0.81513808	     -8.84325291	      6.95857951	     49.78226691	    -18.62833179	     86.63911864	     20.57681240	     82.63997477	      0.00000000	      0.00000000	     53.01534095	    -16.81913408	     77.86922268	     16.52212752	     83.51084234	      0.00000000	      0.00000000
      5.02000000	     89.39665956	     34.59934035	     87.62870573	      0.38816776	      0.95359804	      0.54264510	    119.62655576	    -35.43728624	     11.67913848	     67.85735661	      1.18433429	      2.55609198	      0.00000000	      0.00000000	    119.53707582	    -47.64735724	      9.91702735	     66.27570031	      1.15672918	      2.01495349	      0.00000000	      0.00000000	     -0.74715317	     -8.86115251	      6.99151190	     49.77381262	    -18.62878905	     86.64693672	     20.56141293	     82.63892575	      0.00000000	      0.00000000	     53.00387953	    -16.80423959	     77.87978169	     16.51297764	     83.51066872	      0.00000000	      0.00000000
      5.02500000	     89.41859240	     34.36499035	     87.58059222	      0.38856296	      0.95364246	      0.54344590	    119.62820688	    -35.37824103	     11.52350565	     67.57000614	      1.17931908	      2.47471815	      0.00000000	      0.00000000	    119.54826473	    -47.53803181	      9.94196470	     65.99531066	      1.15183546	      1.94248680	      0.00000000	      0.00000000	     -0.58232514	     -8.84396162	      7.02051424	     49.80464130	    -18.61027358	     86.66616696	     20.51835595	     82.62402946	      0.00000000	      0.00000000	     53.05339715	    -16.75452492	     77.91764263	     16.45775360	     83.50320533	      0.00000000	      0.00000000
      5.03000000	     89.39300968	     34.26604994	     87.56771346	      0.38852430	      0.95360810	      0.54394925	    119.62663564	    -35.38324657	     11.41134619	     67.45144291	      1.17724976	      2.43817396	      0.00000000	      0.00000000	    119.54684854	    -47.55471143	      9.86164684	     65.92894596	      1.15067718	      1.92959307	      0.00000000	      0.00000000	     -0.49817378	     -8.84686264	      7.05069114	     49.78966088	    -18.62675326	     86.67406371	     20.50337305	     82.61559770	      0.00000000	      0.00000000	     53.02845623	    -16.74287166	     77.93489505	     16.45077978	     83.49871685	      0.00000000	      0.00000000
      5.03500000	     89.38008056	     34.13720412	     87.55747097	      0.38856879	      0.95362209	      0.54449754	    119.62342372	    -35.39492752	     11.27550426	     67.30657572	      1.17472135	      2.40997483	      0.00000000	      0.00000000	    119.54684439	    -47.53622217	      9.79490950	     65.82020244	      1.14877925	      1.91340893	      0.00000000	      0.00000000	     -0.39119424	     -8.85537844	      7.08019995	     49.77771226	    -18.62934583	     86.69298615	     20.48450507	     82.60608894	      0.00000000	      0.00000000	     53.01604203	    -16.72275589	     77.94847747	     16.44559829	     83.49293532	      0.00000000	      0.00000000
      5.04000000	     89.39374731	     33.90707709	     87.51967082	      0.38894877	      0.95358027	      0.54529960	    119.61368807	    -35.37738404	     11.08991247	     67.00023686	      1.16937473	      2.31587374	      0.00000000	      0.00000000	    119.55867819	    -47.42056353	      9.82979682	     65.54497349	      1.14397560	      1.88995440	      0.00000000	      0.00000000	     -0.22305301	     -8.83700498	      7.09520686	     49.81451894	    -18.60850474	     86.73706283	     20.41910055	     82.56991449	      0.00000000	      0.00000000	     53.04833574	    -16.68861225	     77.97499593	     16.40781906	     83.46614598	      0.00000000	      0.00000000
      5.04500000	     89.37922173	     33.83934327	     87.50437077	      0.38880534	      0.95357473	      0.54573834	    119.60721732	    -35.37968379	     11.01846007	     66.93098573	      1.16816607	      2.27590239	      0.00000000	      0.00000000	    119.54257708	    -47.45694760	      9.73767783	     65.50063704	      1.14320178	      1.87676304	      0.00000000	      0.00000000	     -0.14872817	     -8.84736055	      7.13042486	     49.77656991	    -18.60795332	     86.76166260	     20.40227877	     82.55955994	      0.00000000	      0.00000000	     53.01575495	    -16.67823556	     77.98659037	     16.41433130	     83.45970561	      0.00000000	      0.00000000
      5.05000000	     89.36618250	     33.71904828	     87.48653211	      0.38877924	      0.95354903	      0.54628335	    119.60500799	    -35.38783926	     10.88615689	     66.78841612	      1.16567776	      2.22076911	      0.00000000	      0.00000000	    119.54384671	    -47.46045403	      9.66172413	     65.39775218	      1.14140610	      1.85905408	      0.00000000	      0.00000000	     -0.03537608	     -8.85251352	      7.16475143	     49.75531585	    -18.60499292	     86.78179961	     20.37705538	     82.54565582	      0.00000000	      0.00000000	     52.99040457	    -16.66610941	     77.99441924	     16.42217822	     83.45116443	      0.00000000	      0.00000000
      5.05500000	     89.36689852	     33.58291048	     87.46133388	      0.38884518	      0.95346892	      0.54688419	    119.60141258	    -35.40718710	     10.73459658	     66.62840655	      1.16288507	      2.13644855	      0.00000000	      0.00000000	    119.54677567	    -47.43922026	      9.60728990	     65.25903859	      1.13898509	      1.84390091	      0.00000000	      0.00000000	      0.07578339	     -8.84101633	      7.18595044	     49.75261780	    -18.59883282	     86.80569440	     20.33425060	     82.52572147	      0.00000000	      0.00000000	     52.98808906	    -16.65469475	     77.99738759	     16.43149302	     83.43885489	      0.00000000	      0.00000000
      5.06000000	     89.37472888	     33.45815203	     87.43896443	      0.38878603	      0.95347091	      0.54740368	    119.59902867	    -35.41498014	     10.62158369	     66.49499868	      1.16055666	      2.05581840	      0.00000000	      0.00000000	    119.54506616	    -47.44407071	      9.53232345	     65.12922522	      1.13671942	      1.82621383	      0.00000000	      0.00000000	      0.20161906	     -8.82574115	      7.20189654	     49.71294599	    -18.59031045	     86.83034185	     20.30787297	     82.51001482	      0.00000000	      0.00000000	     52.95352945	    -16.65438641	     78.00044693	     16.44472162	     83.43048343	      0.00000000	      0.00000000
      5.06500000	     89.39143456	     33.22145696	     87.41421980	      0.38915605	      0.95344292	      0.54820833	    119.59309407	    -35.39301585	     10.45651586	     66.17914454	      1.15504397	      1.92103169	      0.00000000	      0.00000000	    119.55398381	    -47.33405303	      9.52594056	     64.83996709	      1.13167091	      1.78355428	      0.00000000	      0.00000000	      0.37921189	     -8.80911545	      7.19815394	     49.75775176	    -18.55806801	     86.85662104	     20.24340409	     82.45686882	      0.00000000	      0.00000000	     52.97173582	    -16.64984240	     77.99455008	     16.46283866	     83.40639444	      0.00000000	      0.00000000
      5.07000000	     89.38327633	     33.15954474	     87.39788594	      0.38894490	      0.95341072	      0.54861650	    119.58700870	    -35.42535061	     10.35375508	     66.11132247	      1.15386025	      1.87396570	      0.00000000	      0.00000000	    119.54512180	    -47.39965064	      9.39787872	     64.79760356	      1.13093153	      1.77094082	      0.00000000	      0.00000000	      0.45901780	     -8.80613892	      7.21657740	     49.70498680	    -18.56287311	     86.87471718	     20.23697551	     82.44331194	      0.00000000	      0.00000000	     52.93823986	    -16.66064281	     77.99981729	     16.46673387	     83.40178690	      0.00000000	      0.00000000
      5.07500000	     89.39603367	     32.97553438	     87.36996504	      0.38911881	      0.95337505	      0.54931013	    119.58833776	    -35.42592992	     10.18849313	     65.86556677	      1.14957100	      1.76748096	      0.00000000	      0.00000000	    119.54800488	    -47.35247295	      9.34490861	     64.58331434	      1.12719148	      1.73876875	      0.00000000	      0.00000000	      0.61458366	     -8.78339778	      7.22524536	     49.71184775	    -18.56225343	     86.87958537	     20.22469587	     82.40195959	      0.00000000	      0.00000000	     52.93843393	    -16.64977571	     78.00808649	     16.47386914	     83.39005112	      0.00000000	      0.00000000
